<svg xmlns="http://www.w3.org/2000/svg" width="19.417" height="17.985" viewBox="0 0 19.417 17.985">
  <path id="Vector_2_" data-name="Vector (2)" d="M19.175,0H.243A.243.243,0,0,0,0,.243v17.5a.243.243,0,0,0,.243.243H19.175a.243.243,0,0,0,.243-.243V.243A.243.243,0,0,0,19.175,0ZM9.951,17.5V12.317h6.467a.243.243,0,0,0,0-.485H3a.243.243,0,1,0,0,.485H9.466V17.5H.485V7.065H6.476a.243.243,0,0,0,0-.485H.485V.485H18.932V6.58H12.866V2.212a.243.243,0,1,0-.485,0V8.15a.243.243,0,1,0,.485,0V7.065h6.066V17.5Z" fill="#1a1a1a"/>
</svg>
