<svg id="Group_1269" data-name="Group 1269" xmlns="http://www.w3.org/2000/svg" width="17.054" height="17.039" viewBox="0 0 17.054 17.039">
  <path id="Vector-4" d="M16.782,9.622h-.265v-6.7A2.816,2.816,0,0,0,13.712.1a2.783,2.783,0,0,0-1.433.4,1.847,1.847,0,0,0-.356-.252A2.251,2.251,0,0,0,9.48.512L9.336.367A.266.266,0,0,0,8.96.743l.315.319L11.943,3.75l.316.319a.261.261,0,0,0,.188.077.276.276,0,0,0,.188-.077.265.265,0,0,0,0-.376l-.144-.148a2.3,2.3,0,0,0,.268-2.46,1.98,1.98,0,0,0-.111-.178A2.238,2.238,0,0,1,13.718.632,2.284,2.284,0,0,1,15.99,2.921V9.616H.265a.265.265,0,0,0,0,.53H.537c.151,2.916,2.487,6.061,5.557,6.061h.477l-.372.379a.265.265,0,0,0,0,.376.276.276,0,0,0,.188.077.267.267,0,0,0,.191-.081l.742-.752H9.732l.742.752a.267.267,0,0,0,.191.081.276.276,0,0,0,.188-.077.265.265,0,0,0,0-.376l-.372-.379h.477c3.071,0,5.406-3.144,5.557-6.061h.272a.262.262,0,1,0-.007-.524ZM9.853.894A1.721,1.721,0,0,1,11.671.72a1.48,1.48,0,0,1,.352.262,1.594,1.594,0,0,1,.262.356,1.751,1.751,0,0,1-.171,1.832Zm1.1,14.789H6.094c-2.228,0-4.071-1.95-4.752-4.091H11.621a.265.265,0,1,0,0-.53H1.2a6.035,6.035,0,0,1-.131-.9h14.9C15.823,12.77,13.675,15.683,10.953,15.683Z" transform="translate(0 0)" fill="#1a1a1a"/>
  <g id="Group_1268" data-name="Group 1268" transform="translate(8.527 1.977)">
    <path id="Vector-1" d="M1.269.821,1.6.489A.266.266,0,0,0,1.222.113L.894.445a.265.265,0,0,0,0,.376.267.267,0,0,0,.376,0Z" transform="translate(-0.816 -0.035)" fill="#1a1a1a"/>
    <path id="Vector-2" d="M.672,1.477A.27.27,0,0,0,.86,1.4l.329-.332A.266.266,0,1,0,.813.691l-.329.332a.265.265,0,0,0,0,.376A.261.261,0,0,0,.672,1.477Z" transform="translate(0.455 0.25)" fill="#1a1a1a"/>
    <path id="Vector" d="M.68,1.239,1.009.907A.266.266,0,0,0,.633.531L.3.863a.265.265,0,0,0,0,.376.276.276,0,0,0,.188.077A.248.248,0,0,0,.68,1.239Z" transform="translate(1.495 1.273)" fill="#1a1a1a"/>
  </g>
</svg>
