<svg xmlns="http://www.w3.org/2000/svg" width="23.031" height="17.039" viewBox="0 0 23.031 17.039">
  <path id="Vector_1_" data-name="Vector (1)" d="M22.668,9.347h-.607V1.441A1.442,1.442,0,0,0,20.62,0H2.407A1.442,1.442,0,0,0,.965,1.441v7.9H.358A.359.359,0,0,0,0,9.7v6.981a.359.359,0,0,0,.358.358H2.294a.367.367,0,0,0,.322-.195l.979-1.895H19.437l.979,1.895a.367.367,0,0,0,.322.195h1.936a.359.359,0,0,0,.358-.358V9.7A.366.366,0,0,0,22.668,9.347ZM1.686,1.441A.72.72,0,0,1,2.407.721H20.62a.72.72,0,0,1,.721.721v7.9H19.917V8.671A1.442,1.442,0,0,0,18.476,7.23H12.592a1.425,1.425,0,0,0-1.079.5,1.425,1.425,0,0,0-1.079-.5H4.551A1.442,1.442,0,0,0,3.109,8.671v.671H1.686ZM3.83,9.347V8.676a.72.72,0,0,1,.721-.721h5.884a.72.72,0,0,1,.721.721v.671Zm8.041-.671a.72.72,0,0,1,.721-.721h5.884a.72.72,0,0,1,.721.721v.671H11.871ZM.721,10.063H22.31v2.085H.721Zm21.585,6.269H20.951l-.979-1.895a.367.367,0,0,0-.322-.195H3.372a.367.367,0,0,0-.322.195l-.979,1.895H.721V12.869H22.31v3.463Z" fill="#1a1a1a"/>
</svg>
