<svg xmlns="http://www.w3.org/2000/svg" width="48" height="48" viewBox="0 0 48 48">
  <g id="Group_5284" data-name="Group 5284" transform="translate(-295 -723)">
    <rect id="Rectangle_1042" data-name="Rectangle 1042" width="48" height="48" rx="16" transform="translate(295 723)" fill="#e3256c"/>
    <g id="Group_5285" data-name="Group 5285">
      <path id="Vector" d="M2.246,0H17.069a2.253,2.253,0,0,1,2.246,2.248V4.72a4.2,4.2,0,0,1-1.123,2.585l-4.829,4.271a3.66,3.66,0,0,0-1.123,2.585v4.833A2.5,2.5,0,0,1,11.23,20.9L9.658,21.916a2.289,2.289,0,0,1-3.481-1.911V14.049a4.347,4.347,0,0,0-.9-2.36l-4.267-4.5A3.727,3.727,0,0,1,0,4.945V2.36A2.28,2.28,0,0,1,2.246,0Z" transform="translate(309.842 736.373)" fill="none" stroke="#fff" stroke-linecap="round" stroke-linejoin="round" stroke-width="1.5"/>
      <path id="Vector-2" data-name="Vector" d="M5.572,0,0,8.928" transform="translate(312.742 736.373)" fill="none" stroke="#fff" stroke-linecap="round" stroke-linejoin="round" stroke-width="1.5"/>
    </g>
  </g>
</svg>
