<svg id="instagram_9_" data-name="instagram (9)" xmlns="http://www.w3.org/2000/svg" width="17.351" height="17.351" viewBox="0 0 17.351 17.351">
  <path id="Path_761" data-name="Path 761" d="M12.654,0H4.7A4.7,4.7,0,0,0,0,4.7v7.957a4.7,4.7,0,0,0,4.7,4.7h7.957a4.7,4.7,0,0,0,4.7-4.7V4.7A4.7,4.7,0,0,0,12.654,0ZM8.675,13.419a4.744,4.744,0,1,1,4.744-4.744A4.749,4.749,0,0,1,8.675,13.419Zm4.858-8.37a1.4,1.4,0,1,1,1.4-1.4A1.4,1.4,0,0,1,13.533,5.05Zm0,0" fill="#fff"/>
  <path id="Path_762" data-name="Path 762" d="M149.747,146.02a3.727,3.727,0,1,0,3.727,3.727A3.731,3.731,0,0,0,149.747,146.02Zm0,0" transform="translate(-141.071 -141.071)" fill="#fff"/>
  <path id="Path_763" data-name="Path 763" d="M388.377,96.3a.385.385,0,1,0,.385.385A.385.385,0,0,0,388.377,96.3Zm0,0" transform="translate(-374.844 -93.037)" fill="#fff"/>
</svg>
