<svg id="like_9_" data-name="like (9)" xmlns="http://www.w3.org/2000/svg" width="18.506" height="17.206" viewBox="0 0 18.506 17.206">
  <path id="Path_705" data-name="Path 705" d="M.031,6.957c.27-2.973,2.375-5.13,5.008-5.13A4.979,4.979,0,0,1,9.3,4.284a4.8,4.8,0,0,1,4.163-2.458c2.633,0,4.738,2.157,5.008,5.13a5.29,5.29,0,0,1-.157,1.95,8.363,8.363,0,0,1-2.562,4.276L9.309,19.032l-6.558-5.85A8.364,8.364,0,0,1,.188,8.906,5.3,5.3,0,0,1,.031,6.957ZM.881,8.743a7.648,7.648,0,0,0,2.345,3.91L9.3,18.075l5.973-5.421a7.654,7.654,0,0,0,2.348-3.911,4.622,4.622,0,0,0,.148-1.673l-.005-.036c-.231-2.6-2.04-4.5-4.3-4.5A4.172,4.172,0,0,0,9.634,5.212l-.328.777-.328-.777a4.3,4.3,0,0,0-3.94-2.674C2.778,2.538.97,4.429.734,7.068A4.617,4.617,0,0,0,.881,8.743Z" transform="translate(0 -1.826)" fill="#fff"/>
  <path id="Path_706" data-name="Path 706" d="M6.355,7.9a3.563,3.563,0,0,1,3.559,3.559.356.356,0,0,1-.712,0A2.851,2.851,0,0,0,6.355,8.616a.356.356,0,1,1,0-.712Z" transform="translate(6.457 -5.741)" fill="#fff"/>
</svg>
