<svg xmlns="http://www.w3.org/2000/svg" width="34.588" height="24.5" viewBox="0 0 34.588 24.5">
  <g id="fi-rr-align-justify" transform="translate(0 -4)">
    <path id="Path_281" data-name="Path 281" d="M1.441,6.882H33.147a1.441,1.441,0,1,0,0-2.882H1.441a1.441,1.441,0,0,0,0,2.882Z" transform="translate(0 0)" fill="#0c1f39"/>
    <path id="Path_282" data-name="Path 282" d="M33.147,9H1.441a1.441,1.441,0,1,0,0,2.882H33.147a1.441,1.441,0,1,0,0-2.882Z" transform="translate(0 2.206)" fill="#0c1f39"/>
    <path id="Path_283" data-name="Path 283" d="M33.147,19H1.441a1.441,1.441,0,0,0,0,2.882H33.147a1.441,1.441,0,0,0,0-2.882Z" transform="translate(0 6.618)" fill="#0c1f39"/>
    <path id="Path_284" data-name="Path 284" d="M33.147,14H1.441a1.441,1.441,0,1,0,0,2.882H33.147a1.441,1.441,0,1,0,0-2.882Z" transform="translate(0 4.412)" fill="#0c1f39"/>
  </g>
</svg>
