<svg xmlns="http://www.w3.org/2000/svg" width="21.355" height="17.351" viewBox="0 0 21.355 17.351">
  <g id="twitter_6_" data-name="twitter (6)" transform="translate(0 -48)">
    <g id="Group_1464" data-name="Group 1464" transform="translate(0 48)">
      <path id="Path_764" data-name="Path 764" d="M21.355,50.054a9.127,9.127,0,0,1-2.523.691,4.353,4.353,0,0,0,1.926-2.42,8.749,8.749,0,0,1-2.776,1.06,4.378,4.378,0,0,0-7.573,2.994,4.508,4.508,0,0,0,.1,1A12.392,12.392,0,0,1,1.487,48.8a4.379,4.379,0,0,0,1.345,5.851A4.323,4.323,0,0,1,.854,54.11v.048a4.4,4.4,0,0,0,3.507,4.3,4.369,4.369,0,0,1-1.148.144,3.871,3.871,0,0,1-.829-.075,4.42,4.42,0,0,0,4.091,3.05,8.8,8.8,0,0,1-5.428,1.867A8.2,8.2,0,0,1,0,63.386a12.325,12.325,0,0,0,6.716,1.965,12.374,12.374,0,0,0,12.46-12.458c0-.194-.007-.38-.016-.566A8.734,8.734,0,0,0,21.355,50.054Z" transform="translate(0 -48)" fill="#fff"/>
    </g>
  </g>
</svg>
